<svg xmlns="http://www.w3.org/2000/svg" viewBox="0 0 215.34 40.28"><defs/><g id="图层_2"><g id="图层_1-2"><path d="M55.65 30.26q-1.44.13-2.66.13a12.5 12.5 0 0 1-5.45-.9 4.54 4.54 0 0 1-2.34-3 25.49 25.49 0 0 1-.58-6.33 25.36 25.36 0 0 1 .58-6.29 4.6 4.6 0 0 1 2.34-3A12.33 12.33 0 0 1 53 9.94a25.67 25.67 0 0 1 2.64.15 17.29 17.29 0 0 1 2.32.38v3.33a36.81 36.81 0 0 0-3.96-.29 11.55 11.55 0 0 0-3.66.39 2.14 2.14 0 0 0-1.31 1.67 24.09 24.09 0 0 0-.29 4.59 24.1 24.1 0 0 0 .29 4.59 2.15 2.15 0 0 0 1.31 1.67 11.57 11.57 0 0 0 3.66.39 25.81 25.81 0 0 0 4-.29v3.4a22.29 22.29 0 0 1-2.35.34zM62.45 29.74a3.15 3.15 0 0 1-1.8-2.16 21.35 21.35 0 0 1-.39-4.85 21.15 21.15 0 0 1 .39-4.84 3.11 3.11 0 0 1 1.79-2.14 12 12 0 0 1 4.62-.64 12 12 0 0 1 4.62.64 3.11 3.11 0 0 1 1.79 2.14 21.12 21.12 0 0 1 .39 4.84 21.32 21.32 0 0 1-.39 4.85 3.15 3.15 0 0 1-1.8 2.16 11.76 11.76 0 0 1-4.61.65 11.76 11.76 0 0 1-4.61-.65zm6.68-2.83a1.39 1.39 0 0 0 .7-1.1 23.36 23.36 0 0 0 .17-3.09 23 23 0 0 0-.13-3.07 1.34 1.34 0 0 0-.7-1.08 5.32 5.32 0 0 0-2.08-.28 5.32 5.32 0 0 0-2.08.28 1.34 1.34 0 0 0-.7 1.08 23 23 0 0 0-.13 3.07 23.36 23.36 0 0 0 .13 3.08 1.39 1.39 0 0 0 .7 1.1 5.08 5.08 0 0 0 2.08.29 5.08 5.08 0 0 0 2.04-.28zM79.64 30.16l-4.77-14.82h4l3.43 11.14 3.3-11.14h3.92l-4.74 14.82zM103.64 23.91H94.4a7.24 7.24 0 0 0 .23 2.21 1.4 1.4 0 0 0 1 .86 12.79 12.79 0 0 0 2.88.22q1.71 0 4.5-.23v3a19.89 19.89 0 0 1-2.44.33q-1.51.13-3 .13a11.54 11.54 0 0 1-4.74-.73A3.48 3.48 0 0 1 91 27.4a18.2 18.2 0 0 1-.44-4.62 17.36 17.36 0 0 1 .44-4.55 3.76 3.76 0 0 1 1.89-2.34 9.69 9.69 0 0 1 4.46-.78 9 9 0 0 1 4.3.77 3.36 3.36 0 0 1 1.67 2.27 23.28 23.28 0 0 1 .33 4.63zm-8.25-5.48a1.32 1.32 0 0 0-.77.92 9.51 9.51 0 0 0-.22 2.18h5.6a7.6 7.6 0 0 0-.23-2.21 1.38 1.38 0 0 0-.78-.92 4.88 4.88 0 0 0-1.68-.22 5.23 5.23 0 0 0-1.92.26zM115.73 22.32a14 14 0 0 0-.16-2.59 1.23 1.23 0 0 0-.65-.94 4.82 4.82 0 0 0-1.74-.22 3.53 3.53 0 0 0-1.85.38 1.82 1.82 0 0 0-.78 1.19 11.05 11.05 0 0 0-.19 2.35v7.67h-3.86V15.34h3.78v1.83c.37-.72 2-2.06 4.71-2.06a5.62 5.62 0 0 1 3 .64 3.07 3.07 0 0 1 1.35 1.86 12.91 12.91 0 0 1 .33 3.28v9.27h-3.86zM123.3 29.38a4.44 4.44 0 0 1-1.09-3.38 7.37 7.37 0 0 1 .41-2.73 3.29 3.29 0 0 1 1.38-1.76 7.12 7.12 0 0 1 2.83-.45q1.51 0 4.53.12V21a4.28 4.28 0 0 0-.28-1.83 1.37 1.37 0 0 0-1-.67 16 16 0 0 0-2.62-.15q-.9 0-2.24.09t-2.12.17v-3a33.22 33.22 0 0 1 5.64-.47 10.91 10.91 0 0 1 4.24.62 3.19 3.19 0 0 1 1.83 1.86 11.1 11.1 0 0 1 .44 3.53v9h-3.63l-.12-1.8c-1.19 1.92-3.84 2-4.88 2a4.73 4.73 0 0 1-3.32-.97zm6.7-2.25a1.94 1.94 0 0 0 .94-.71 4.23 4.23 0 0 0 .44-2.18v-.46h-3.48a1.76 1.76 0 0 0-2 1.83c0 .52.19 1.42.89 1.61a7.78 7.78 0 0 0 3.21-.09zM147.86 22.32a14 14 0 0 0-.16-2.59 1.23 1.23 0 0 0-.65-.94 4.82 4.82 0 0 0-1.74-.22 3.53 3.53 0 0 0-1.85.38 1.82 1.82 0 0 0-.78 1.19 11.05 11.05 0 0 0-.19 2.35v7.67h-3.86V15.34h3.79v1.83c.37-.72 1.85-2.06 4.71-2.06a5.62 5.62 0 0 1 3 .64 3.07 3.07 0 0 1 1.35 1.86 12.91 12.91 0 0 1 .33 3.28v9.27h-3.86zM167.82 29.89v-3.28q3.39.33 5.79.33a14.88 14.88 0 0 0 2.19-.12 2.54 2.54 0 0 0 1.17-.43 1.19 1.19 0 0 0 .46-.66 4.82 4.82 0 0 0 .1-1.1 4.5 4.5 0 0 0-.11-1.17.89.89 0 0 0-.44-.55 3.22 3.22 0 0 0-1.1-.26l-4.05-.47a6.35 6.35 0 0 1-2.81-1 3.56 3.56 0 0 1-1.36-1.82 8.85 8.85 0 0 1-.37-2.77 6.38 6.38 0 0 1 .88-3.68 4.06 4.06 0 0 1 2.37-1.64 15.68 15.68 0 0 1 3.83-.39 29.79 29.79 0 0 1 6.17.55v3.2a40.5 40.5 0 0 0-5.38-.36 8.36 8.36 0 0 0-3.28.41 1 1 0 0 0-.55.58 3.91 3.91 0 0 0-.11 1.07 4.47 4.47 0 0 0 .11 1.19.78.78 0 0 0 .48.51 5.43 5.43 0 0 0 1.25.26l4.35.52a7 7 0 0 1 2.09.51 2.74 2.74 0 0 1 1.3 1.23 7.8 7.8 0 0 1 .66 3.67 7.55 7.55 0 0 1-.83 3.94 3.8 3.8 0 0 1-2.22 1.72 13.64 13.64 0 0 1-3.65.4 47 47 0 0 1-6.94-.39zM200.73 33.14v.14h-4.3l-2.07-3q-1 .08-2.34.08a13.36 13.36 0 0 1-5.54-.83 3.81 3.81 0 0 1-2.08-2.7 31.13 31.13 0 0 1-.43-6.17 31.12 31.12 0 0 1 .43-6.17 3.81 3.81 0 0 1 2.08-2.7 19 19 0 0 1 11.09 0 3.8 3.8 0 0 1 2.09 2.7 31.16 31.16 0 0 1 .43 6.17q0 2.78-.12 4.33a8.65 8.65 0 0 1-.58 2.63 3.53 3.53 0 0 1-1.45 1.7zm-8.63-6.2l-1.93-2.84h4.05l1.41 2a4 4 0 0 0 .41-1.7q.08-1.14.08-3.74a31.77 31.77 0 0 0-.21-4.53 1.76 1.76 0 0 0-1-1.47 9.28 9.28 0 0 0-2.94-.3 9.13 9.13 0 0 0-2.92.3 1.8 1.8 0 0 0-1 1.49 29.76 29.76 0 0 0-.22 4.52 29.75 29.75 0 0 0 .22 4.52 1.8 1.8 0 0 0 1 1.49 9.12 9.12 0 0 0 2.92.3zM203.4 30.11v-19h3.91v15.45h8v3.56zM161.63 26.86a1.4 1.4 0 0 1-1-.86 6.17 6.17 0 0 1-.22-1.77v-5.81h3.37v-3.2h-3.37v-4.3h-3.86v4.3h-2.85v3.2h2.85V23a18.45 18.45 0 0 0 .27 4.33 3.71 3.71 0 0 0 2.1 2.25 12.6 12.6 0 0 0 4.93.73v-3.2a10.16 10.16 0 0 1-2.22-.25zM17.44 0L0 10.08v20.07l17.4 10.1h.06a60.48 60.48 0 0 1-.84-10.59v-1a8.94 8.94 0 1 1 7.85-3.31l.71.45a38.42 38.42 0 0 0 9.72 4.4V10.06zM8.73 14.19a7.94 7.94 0 0 1 .51-7.32s.06-.09.08 0a14.83 14.83 0 0 0 1.11 3.58 7.76 7.76 0 0 0 .79 1.06 10.49 10.49 0 0 0-2.49 2.68zm17.38-.27a10.49 10.49 0 0 0-2.52-2.55 8 8 0 0 0 .75-1 7.91 7.91 0 0 0 1.1-3.44v-.18c0-.12 0-.07.08 0a7.94 7.94 0 0 1 .59 7.17z" class="cls-1"/></g></g></svg>
