<?xml version="1.0" encoding="UTF-8"?>
<svg width="100px" height="104px" viewBox="0 0 100 104" version="1.1" xmlns="http://www.w3.org/2000/svg" xmlns:xlink="http://www.w3.org/1999/xlink">
    <!-- Generator: Sketch 51.2 (57519) - http://www.bohemiancoding.com/sketch -->
    <title>faucet</title>
    <desc>Created with Sketch.</desc>
    <defs></defs>
    <g id="Covenant" stroke="none" stroke-width="1" fill="none" fill-rule="evenodd">
        <g id="faucet" fill-rule="nonzero">
            <g>
                <g id="Group" transform="translate(37.298387, 3.629032)" fill="#0053CC">
                    <path d="M14.8457661,0.0421370968 L3.83649194,0.0421370968 C1.72439516,0.0421370968 0.0122983871,1.75423387 0.0122983871,3.86633065 C0.0122983871,5.97842742 1.72439516,7.69052419 3.83649194,7.69052419 L14.8457661,7.69052419 L14.8457661,0.0421370968 Z" id="Shape"></path>
                    <path d="M19.9183468,0.0421370968 L30.927621,0.0421370968 C33.0397177,0.0421370968 34.7518145,1.75423387 34.7518145,3.86633065 C34.7518145,5.97842742 33.0397177,7.69052419 30.927621,7.69052419 L19.9183468,7.69052419 L19.9183468,0.0421370968 Z" id="Shape"></path>
                </g>
                <path d="M15.2231855,101.71371 C22.7086694,101.71371 28.7770161,95.6455645 28.7770161,88.159879 C28.7770161,80.28125 21.5870968,72.8993952 16.5909274,66.9616935 C15.8760081,66.1120968 14.5705645,66.1120968 13.8558468,66.9616935 C8.85947581,72.8995968 1.66955645,80.2814516 1.66955645,88.159879 C1.66955645,95.6455645 7.73770161,101.71371 15.2231855,101.71371 Z" id="Shape" fill="#C0E5FF"></path>
                <path d="M27.0788306,94.7284274 C12.0358871,97.9877016 4.05645161,86.5697581 7.78931452,74.2201613 C4.46955645,78.5197581 1.66915323,83.2431452 1.66915323,88.1600806 C1.66915323,95.6455645 7.73729839,101.713911 15.2229839,101.713911 C20.3252016,101.71371 24.7663306,98.8935484 27.0788306,94.7284274 Z" id="Shape" fill="#B5E0FF"></path>
                <path d="M25.2778226,67.7546371 L5.16875,67.7546371 C3.71673387,67.7546371 2.53951613,66.5774194 2.53951613,65.1254032 L2.53951613,58.5872984 C2.53951613,57.1352823 3.71653226,55.9580645 5.16875,55.9580645 L25.2780242,55.9580645 C26.7300403,55.9580645 27.9072581,57.1352823 27.9072581,58.5872984 L27.9072581,65.1254032 C27.9070565,66.577621 26.7298387,67.7546371 25.2778226,67.7546371 Z" id="Shape" fill="#0092FF"></path>
                <path d="M16.34375,55.9582661 L5.16875,55.9582661 C3.71673387,55.9582661 2.53951613,57.1354839 2.53951613,58.5875 L2.53951613,65.1256048 C2.53951613,66.577621 3.71673387,67.7548387 5.16875,67.7548387 L21.0653226,67.7548387 C16.7905242,65.0840726 15.5502016,59.5403226 16.34375,55.9582661 Z" id="Shape" fill="#0053CC"></path>
                <rect id="Rectangle-path" fill="#0053CC" x="50.4737903" y="11.141129" width="8.41512097" height="9.72379032"></rect>
                <path d="M70.6195565,23.6572581 C69.4274194,21.9104839 67.4493952,20.8655242 65.3346774,20.8655242 L44.0260081,20.8655242 C41.9112903,20.8655242 39.9332661,21.9104839 38.741129,23.6572581 C37.8461694,24.96875 36.3608871,25.7534274 34.7729839,25.7534274 C19.4929435,25.7534274 7.10584677,38.1403226 7.10584677,53.4205645 L7.10584677,55.9582661 L23.340121,55.9582661 L23.340121,53.4205645 C23.340121,47.1064516 28.458871,41.9877016 34.7729839,41.9877016 C36.3608871,41.9877016 37.8461694,42.7721774 38.741129,44.083871 C39.9332661,45.8306452 41.9112903,46.8754032 44.0260081,46.8754032 L65.3346774,46.8754032 C67.4493952,46.8754032 69.4274194,45.8304435 70.6195565,44.083871 C71.5145161,42.772379 72.9997984,41.9877016 74.5877016,41.9877016 L86.6165323,41.9877016 L86.6165323,25.7534274 L74.5877016,25.7534274 C73.0002016,25.7534274 71.5149194,24.96875 70.6195565,23.6572581 Z" id="Shape" fill="#C7C9CC"></path>
                <path d="M68.2802419,46.1558468 C46.408871,46.6721774 37.9429435,32.6254032 38.8864919,23.4580645 C38.8377016,23.5239919 38.7879032,23.5891129 38.7413306,23.6574597 C37.846371,24.9689516 36.3610887,25.753629 34.7731855,25.753629 C19.4931452,25.753629 7.10604839,38.1405242 7.10604839,53.4207661 L7.10604839,55.9584677 L23.3403226,55.9584677 L23.3403226,53.4207661 C23.3403226,47.1066532 28.4590726,41.9879032 34.7731855,41.9879032 C36.3610887,41.9879032 37.846371,42.7725806 38.7413306,44.0840726 C39.9334677,45.8308468 41.9114919,46.8756048 44.0262097,46.8756048 L65.334879,46.8756048 C66.3758065,46.8754032 67.3830645,46.6211694 68.2802419,46.1558468 Z" id="Shape" fill="#B2B5B8"></path>
                <ellipse id="Oval" fill="#495059" cx="54.6814516" cy="7.49596774" rx="6.95725806" ry="5.98326613"></ellipse>
                <path d="M94.5393145,48.1534274 L90.4078629,48.1534274 C88.3141129,48.1534274 86.6167339,46.4560484 86.6167339,44.3622984 L86.6167339,23.3788306 C86.6167339,21.2850806 88.3141129,19.5877016 90.4078629,19.5877016 L94.5393145,19.5877016 C96.6330645,19.5877016 98.3304435,21.2850806 98.3304435,23.3788306 L98.3304435,44.3625 C98.3304435,46.45625 96.6328629,48.1534274 94.5393145,48.1534274 Z" id="Shape" fill="#0092FF"></path>
                <g id="Group" transform="translate(38.911290, 32.056452)" fill="#FFFFFF">
                    <ellipse id="Oval" cx="4.31653226" cy="3.40120968" rx="4.22560484" ry="3.36512097"></ellipse>
                    <ellipse id="Oval" cx="27.2217742" cy="3.40120968" rx="4.22560484" ry="3.36512097"></ellipse>
                </g>
                <path d="M89.6153226,19.6719758 C87.9024194,20.0366935 86.6169355,21.5568548 86.6169355,23.378629 L86.6169355,44.3622984 C86.6169355,46.4560484 88.3143145,48.1534274 90.4080645,48.1534274 L94.5395161,48.1534274 C96.0955645,48.1534274 97.43125,47.215121 98.0153226,45.8741935 C89.6872984,41.7344758 88.8104839,27.5066532 89.6153226,19.6719758 Z" id="Shape" fill="#0053CC"></path>
                <path d="M44.178629,30.6086694 L44.178629,32.1008065 C44.178629,32.9360887 44.8556452,33.6129032 45.6907258,33.6129032 C46.5258065,33.6129032 47.2028226,32.9360887 47.2028226,32.1008065 L47.2028226,30.6086694 C47.2028226,29.7733871 46.5258065,29.0965726 45.6907258,29.0965726 C44.8556452,29.0965726 44.178629,29.7735887 44.178629,30.6086694 Z M62.1582661,30.6086694 L62.1582661,32.1008065 C62.1582661,32.9360887 62.8352823,33.6129032 63.6703629,33.6129032 C64.5054435,33.6129032 65.1824597,32.9360887 65.1824597,32.1008065 L65.1824597,30.6086694 C65.1824597,29.7733871 64.5054435,29.0965726 63.6703629,29.0965726 C62.8352823,29.0965726 62.1582661,29.7735887 62.1582661,30.6086694 Z M94.5393145,18.0754032 L90.4078629,18.0754032 C87.4836694,18.0754032 85.1046371,20.4544355 85.1046371,23.378629 L85.1046371,24.2413306 L82.2828629,24.2413306 C81.4477823,24.2413306 80.7707661,24.9181452 80.7707661,25.7534274 C80.7707661,26.5887097 81.4477823,27.2655242 82.2828629,27.2655242 L85.1046371,27.2655242 L85.1046371,40.4754032 L74.5877016,40.4754032 C72.4985887,40.4754032 70.5481855,41.5054435 69.3705645,43.23125 C68.4594758,44.566129 66.9508065,45.3631048 65.3346774,45.3631048 L44.0262097,45.3631048 C42.409879,45.3631048 40.9012097,44.566129 39.9903226,43.23125 C38.8127016,41.5054435 36.8622984,40.4754032 34.7731855,40.4754032 C27.6352823,40.4754032 21.8284274,46.2824597 21.8284274,53.4203629 L21.8284274,54.4459677 L8.61794355,54.4459677 L8.61794355,53.4203629 C8.61794355,38.9985887 20.3510081,27.2655242 34.7729839,27.2655242 C36.8620968,27.2655242 38.8125,26.2352823 39.990121,24.5094758 C40.9012097,23.1747984 42.409879,22.3778226 44.0260081,22.3778226 L65.3346774,22.3778226 C66.9508065,22.3778226 68.4594758,23.1747984 69.3705645,24.5094758 C70.5481855,26.2352823 72.4985887,27.2655242 74.5877016,27.2655242 L75.2181452,27.2655242 C76.0532258,27.2655242 76.7302419,26.5887097 76.7302419,25.7534274 C76.7302419,24.9181452 76.0532258,24.2413306 75.2181452,24.2413306 L74.5877016,24.2413306 C73.4987903,24.2413306 72.4822581,23.7044355 71.8685484,22.8048387 C70.39375,20.64375 67.9510081,19.353629 65.3346774,19.353629 L60.4,19.353629 L60.4,13.0173387 C60.4747984,12.9566532 60.5479839,12.8945565 60.6203629,12.8314516 L68.2258065,12.8314516 C71.1681452,12.8314516 73.5620968,10.4377016 73.5620968,7.49516129 C73.5620968,4.55262097 71.1681452,2.15887097 68.2258065,2.15887097 L60.6203629,2.15887097 C59.0907258,0.825201613 56.9927419,0 54.6806452,0 C52.3683468,0 50.2705645,0.825201613 48.7407258,2.15907258 L41.1350806,2.15907258 C38.1927419,2.15907258 35.7987903,4.55282258 35.7987903,7.4953629 C35.7987903,10.4379032 38.1927419,12.8316532 41.1350806,12.8316532 L48.7405242,12.8316532 C48.8129032,12.8947581 48.8860887,12.9568548 48.9608871,13.0177419 L48.9608871,19.3538306 L44.0262097,19.3538306 C41.4096774,19.3538306 38.9671371,20.6439516 37.4923387,22.8050403 C36.878629,23.7046371 35.8620968,24.2415323 34.7731855,24.2415323 C18.6836694,24.2415323 5.59395161,37.33125 5.59395161,53.4205645 L5.59395161,54.4461694 L5.16854839,54.4461694 C2.88508065,54.4461694 1.02721774,56.3040323 1.02721774,58.5875 L1.02721774,65.1256048 C1.02721774,67.4090726 2.88487903,69.2669355 5.16854839,69.2669355 L9.89516129,69.2669355 C5.30564516,74.6459677 0.157056452,81.1518145 0.157056452,88.1600806 C0.157056452,91.0217742 0.963104839,93.8066532 2.48810484,96.2135081 C2.77600806,96.6679435 3.26592742,96.9165323 3.76693548,96.9165323 C4.04354839,96.9165323 4.32379032,96.8405242 4.57479839,96.6816532 C5.28004032,96.2344758 5.48971774,95.3004032 5.04274194,94.5949597 C3.825,92.6727823 3.18125,90.4475806 3.18125,88.159879 C3.18125,81.7171371 8.53971774,75.4810484 13.2671371,69.9792339 C13.4731855,69.7395161 13.6768145,69.5024194 13.8788306,69.2667339 L16.5665323,69.2667339 C16.76875,69.5024194 16.972379,69.7397177 17.1784274,69.9794355 C21.9060484,75.48125 27.2643145,81.7171371 27.2643145,88.159879 C27.2643145,94.7997984 21.8622984,100.201613 15.2225806,100.201613 C13.2951613,100.201613 11.4546371,99.7602823 9.75181452,98.8903226 C9.00826613,98.5102823 8.09737903,98.8050403 7.71733871,99.5487903 C7.33729839,100.29254 7.63225806,101.203427 8.37580645,101.583468 C10.5092742,102.673185 12.8129032,103.225806 15.2233871,103.225806 C23.5308468,103.225806 30.2893145,96.4673387 30.2893145,88.159879 C30.2893145,81.1516129 25.1407258,74.6457661 20.5510081,69.2667339 L25.2780242,69.2667339 C27.5614919,69.2667339 29.4193548,67.408871 29.4193548,65.1254032 L29.4193548,58.5872984 C29.4193548,56.3038306 27.5614919,54.4459677 25.2780242,54.4459677 L24.852621,54.4459677 L24.852621,53.4203629 C24.852621,47.95 29.3030242,43.4995968 34.7733871,43.4995968 C35.8622984,43.4995968 36.8788306,44.0364919 37.4925403,44.9358871 C38.9673387,47.0971774 41.409879,48.3872984 44.0264113,48.3872984 L65.3350806,48.3872984 C67.9516129,48.3872984 70.3941532,47.0969758 71.8689516,44.9358871 C72.4826613,44.0364919 73.4991935,43.4995968 74.5881048,43.4995968 L85.1050403,43.4995968 L85.1050403,44.3620968 C85.1050403,47.2862903 87.4840726,49.6653226 90.4082661,49.6653226 L94.5397177,49.6653226 C97.4639113,49.6653226 99.8429435,47.2862903 99.8429435,44.3620968 L99.8429435,23.378629 C99.8425403,20.4544355 97.4635081,18.0754032 94.5393145,18.0754032 Z M62.7356855,5.18326613 L68.2260081,5.18326613 C69.5008065,5.18326613 70.5381048,6.22056452 70.5381048,7.4953629 C70.5381048,8.77016129 69.5008065,9.80745968 68.2260081,9.80745968 L62.7356855,9.80745968 C63.0034274,9.07883065 63.1497984,8.30221774 63.1497984,7.4953629 C63.1497984,6.68850806 63.0034274,5.91189516 62.7356855,5.18326613 Z M46.6252016,9.80745968 L41.134879,9.80745968 C39.8600806,9.80745968 38.8227823,8.77016129 38.8227823,7.4953629 C38.8227823,6.22056452 39.8600806,5.18326613 41.134879,5.18326613 L46.6252016,5.18326613 C46.3574597,5.91189516 46.2108871,6.68850806 46.2108871,7.4953629 C46.2110887,8.30201613 46.3576613,9.07862903 46.6252016,9.80745968 Z M57.3760081,19.353629 L51.9850806,19.353629 L51.9850806,14.5991935 C52.8324597,14.8516129 53.7381048,14.9907258 54.6804435,14.9907258 C55.6227823,14.9907258 56.528629,14.8518145 57.3760081,14.5991935 L57.3760081,19.353629 Z M50.3754032,4.7625 C50.4044355,4.73467742 50.4320565,4.70544355 50.458871,4.67540323 C51.4580645,3.66854839 52.9792339,3.02419355 54.6806452,3.02419355 C56.3830645,3.02419355 57.9050403,3.66955645 58.9042339,4.67741935 C58.9302419,4.70645161 58.9568548,4.73487903 58.9850806,4.76189516 C59.6991935,5.51834677 60.1256048,6.46633065 60.1256048,7.4953629 C60.1256048,8.52419355 59.6989919,9.47237903 58.9850806,10.2288306 C58.9568548,10.2558468 58.9302419,10.2842742 58.9042339,10.3133065 C58.6693548,10.5502016 58.4058468,10.7669355 58.1177419,10.9600806 C58.0824597,10.9810484 58.0479839,11.0030242 58.0147177,11.0266129 C57.0927419,11.6149194 55.9360887,11.9665323 54.6804435,11.9665323 C53.4254032,11.9665323 52.2689516,11.615121 51.3469758,11.0270161 C51.3129032,11.0028226 51.277621,10.9804435 51.2417339,10.9590726 C50.9550403,10.7667339 50.6927419,10.5510081 50.458871,10.3153226 C50.4320565,10.2852823 50.4044355,10.2560484 50.3754032,10.2282258 C49.6616935,9.47197581 49.2354839,8.52419355 49.2354839,7.49556452 C49.2352823,6.46673387 49.6616935,5.51895161 50.3754032,4.7625 Z M25.2778226,57.4703629 C25.89375,57.4703629 26.3949597,57.971371 26.3949597,58.5875 L26.3949597,65.1256048 C26.3949597,65.7417339 25.89375,66.2427419 25.2778226,66.2427419 L17.2403226,66.2427419 C17.2391129,66.2427419 17.2381048,66.2427419 17.2368952,66.2427419 L5.16875,66.2427419 C4.55282258,66.2427419 4.05181452,65.7417339 4.05181452,65.1256048 L4.05181452,58.5875 C4.05181452,57.971371 4.55282258,57.4703629 5.16875,57.4703629 L25.2778226,57.4703629 Z M96.8183468,44.3622984 C96.8183468,45.61875 95.7959677,46.6413306 94.5393145,46.6413306 L90.4078629,46.6413306 C89.1512097,46.6413306 88.1288306,45.6189516 88.1288306,44.3622984 L88.1288306,23.378629 C88.1288306,22.1221774 89.1512097,21.0995968 90.4078629,21.0995968 L94.5393145,21.0995968 C95.7959677,21.0995968 96.8183468,22.1219758 96.8183468,23.378629 L96.8183468,44.3622984 Z M55.9104839,31.1737903 C55.5997984,31.5302419 55.1514113,31.7346774 54.6802419,31.7346774 C54.2090726,31.7346774 53.7608871,31.5300403 53.4502016,31.1737903 C52.9016129,30.5439516 51.946371,30.478629 51.3167339,31.0270161 C50.6870968,31.5756048 50.6215726,32.5308468 51.1701613,33.1602823 C52.0554435,34.1762097 53.3346774,34.758871 54.6802419,34.758871 C56.0258065,34.758871 57.3052419,34.1762097 58.1903226,33.1602823 C58.7389113,32.5308468 58.6733871,31.5756048 58.04375,31.0270161 C57.4143145,30.478629 56.4592742,30.54375 55.9104839,31.1737903 Z" id="Shape" fill="#000000"></path>
            </g>
        </g>
    </g>
</svg>