<?xml version="1.0" encoding="UTF-8"?>
<svg width="220px" height="50px" viewBox="0 0 1435 232" version="1.1" xmlns="http://www.w3.org/2000/svg" xmlns:xlink="http://www.w3.org/1999/xlink">
    <title>Slice</title>
    <desc>Created with Sketch.</desc>
    <g id="Page-1" stroke="none" stroke-width="1" fill="none" fill-rule="evenodd">
        <g id="Group" transform="translate(0.000000, -29.000000)">
            <g>
                <path d="M78.2790698,217.465116 C71.6772093,218.302326 65.520155,218.72093 59.807907,218.72093 C46.7372693,219.48958 33.6590669,217.344179 21.5311628,212.44186 C13.2324306,208.191818 7.22586869,200.542095 5.09674419,191.511628 C1.86581288,176.926346 0.49721087,161.994864 1.02325581,147.069767 C0.53470307,132.330384 1.90314515,117.588147 5.09674419,103.186047 C7.27761426,94.1802669 13.2691337,86.5497021 21.5311628,82.255814 C33.6422931,77.2903198 46.7297916,75.1195396 59.807907,75.9069767 C66.0023664,75.9391566 72.19104,76.2884571 78.3493023,76.9534884 C83.83488,77.4689592 89.2787785,78.3547271 94.6432558,79.6046512 L94.6432558,102.906977 C85.5090256,101.745957 76.3188721,101.070575 67.112093,100.883721 C58.4523925,100.419917 49.7738471,101.338556 41.4069767,103.604651 C36.4808033,105.597531 32.9818675,110.028467 32.2065116,115.255814 C30.5010547,125.841279 29.8190326,136.564554 30.1697674,147.27907 C29.8194624,157.993579 30.5014819,168.716814 32.2065116,179.302326 C33.0409309,184.471535 36.5280266,188.834591 41.4069767,190.813953 C49.7742962,193.077679 58.4524561,193.996277 67.112093,193.534884 C76.5150867,193.585303 85.9077757,192.908843 95.2051163,191.511628 L95.2051163,215.232558 C89.6081868,216.282065 83.957769,217.027359 78.2790698,217.465116 L78.2790698,217.465116 Z" id="Shape" fill="#333333" fill-rule="nonzero"></path>
                <path d="M126.247907,213.837209 C119.804732,211.117041 115.037896,205.527873 113.395349,198.767442 C111.187266,187.628913 110.268276,176.276137 110.656279,164.930233 C110.261274,153.607286 111.180353,142.27682 113.395349,131.162791 C114.977585,124.493305 119.638298,118.958181 125.966977,116.232558 C136.384716,112.650408 147.408723,111.133387 158.414419,111.767442 C169.420115,111.133387 180.444121,112.650408 190.86186,116.232558 C197.19054,118.958181 201.851252,124.493305 203.433488,131.162791 C205.650342,142.276564 206.569438,153.607244 206.172558,164.930233 C206.562408,176.276179 205.643402,187.629164 203.433488,198.767442 C201.805687,205.513151 197.067345,211.099436 190.651163,213.837209 C180.270817,217.477061 169.262738,219.018897 158.273953,218.372093 C147.402052,218.972334 136.517969,217.431149 126.247907,213.837209 Z M173.163256,194.093023 C175.983069,192.50441 177.825118,189.628931 178.079535,186.418605 C178.859839,179.283598 179.164844,172.10518 178.992558,164.930233 C179.169187,157.778462 178.864165,150.622963 178.079535,143.511628 C177.841693,140.33145 175.988424,137.491057 173.163256,135.976744 C168.472691,134.368426 163.506613,133.704343 158.554884,134.023256 C153.603154,133.704343 148.637077,134.368426 143.946512,135.976744 C141.121343,137.491057 139.268074,140.33145 139.030233,143.511628 C138.245602,150.622963 137.940581,157.778462 138.117209,164.930233 C137.944924,172.10518 138.249929,179.283598 139.030233,186.418605 C139.28465,189.628931 141.126698,192.50441 143.946512,194.093023 C148.620946,195.770868 153.596715,196.460011 158.554884,196.116279 C163.513052,196.460011 168.488821,195.770868 173.163256,194.093023 Z" id="Shape" fill="#333333" fill-rule="nonzero"></path>
                <polygon id="Shape" fill="#333333" fill-rule="nonzero" points="246.837209 216.767442 213.476744 113.372093 241.569767 113.372093 265.659535 190.813953 288.976744 113.372093 316.507907 113.372093 283.077209 216.767442"></polygon>
                <path d="M415.395349,173.232558 L350.570698,173.232558 C350.314542,178.400827 350.859349,183.57751 352.186047,188.581395 C353.372703,191.6202 356.007075,193.870756 359.209302,194.581395 C365.871656,195.850082 372.65724,196.364993 379.436279,196.116279 C387.442791,196.116279 397.977674,195.581395 411.04093,194.511628 L411.04093,215.44186 C405.382028,216.560126 399.658817,217.32904 393.904186,217.744186 C387.068217,218.395349 380.185426,218.72093 373.255814,218.72093 C361.922476,219.357828 350.580846,217.622689 339.965581,213.627907 C333.339445,210.601371 328.420071,204.793504 326.551163,197.790698 C324.140668,187.22153 323.102149,176.389301 323.46093,165.55814 C323.100947,154.884606 324.16365,144.210656 326.621395,133.813953 C328.566655,126.774449 333.376772,120.858506 339.895349,117.488372 C349.757488,113.242669 360.491731,111.377812 371.21907,112.046512 C381.577096,111.346321 391.94928,113.191365 401.41907,117.418605 C407.476066,120.735218 411.763485,126.524433 413.147907,133.255814 C414.959719,143.830321 415.712542,154.557118 415.395349,165.27907 L415.395349,173.232558 Z M357.523721,135 C354.789915,136.155184 352.779022,138.541897 352.115814,141.418605 C351.012609,146.412304 350.49413,151.515936 350.570698,156.627907 L389.760465,156.627907 C389.985313,151.437514 389.441048,146.242472 388.145116,141.209302 C387.406784,138.348341 385.387422,135.982302 382.666977,134.790698 C378.854136,133.599541 374.860938,133.080085 370.867907,133.255814 C366.349668,133.015805 361.825674,133.607125 357.523721,135 Z" id="Shape" fill="#333333" fill-rule="nonzero"></path>
                <path d="M500.376744,162.069767 C500.566125,156.024942 500.189936,149.975708 499.253023,144 C498.908106,141.201769 497.201645,138.750307 494.687907,137.44186 C490.743189,136.192141 486.601144,135.671902 482.467442,135.906977 C477.974423,135.602016 473.482642,136.518542 469.474419,138.55814 C466.589924,140.472489 464.612571,143.469241 463.996279,146.860465 C462.964151,152.262669 462.516799,157.759063 462.66186,163.255814 L462.66186,216.767442 L435.48186,216.767442 L435.48186,113.372093 L462.029767,113.372093 L462.029767,126.139535 L462.029767,126.139535 C464.628372,121.116279 476.076279,111.767442 495.109302,111.767442 C502.413487,111.286157 509.708506,112.832122 516.17907,116.232558 C520.911718,119.175483 524.310608,123.827385 525.660465,129.209302 C527.343458,136.71656 528.051544,144.40704 527.767442,152.093023 L527.767442,216.767442 L500.376744,216.767442 L500.376744,162.069767 Z" id="Shape" fill="#333333" fill-rule="nonzero"></path>
                <path d="M553.542791,211.325581 C547.818446,204.882489 545.045726,196.366722 545.887442,187.813953 C545.653573,181.337184 546.654402,174.874877 548.837209,168.767442 C550.564374,163.617458 554.072993,159.24219 558.74,156.418605 C565.082619,154.044829 571.844821,152.976688 578.615814,153.27907 C585.685891,153.27907 596.291008,153.55814 610.431163,154.116279 L610.431163,152.581395 C610.721158,148.23403 610.049955,143.876288 608.464651,139.813953 C606.974908,137.2629 604.383074,135.537872 601.441395,135.139535 C595.346947,134.29076 589.192608,133.940746 583.040465,134.093023 C578.826512,134.093023 573.582481,134.302326 567.308372,134.72093 C561.034264,135.139535 556.071163,135.534884 552.41907,135.906977 L552.41907,114.976744 C565.504853,112.766395 578.756653,111.669391 592.030233,111.697674 C602.146686,111.169885 612.26808,112.640099 621.808837,116.023256 C627.759433,118.330886 632.435439,123.052074 634.661395,129 C637.01761,136.990886 638.061084,145.306957 637.751628,153.627907 L637.751628,216.418605 L612.046512,216.418605 L611.203721,203.860465 L611.203721,203.860465 C602.846047,217.604651 583.953488,218.72093 576.930233,218.72093 C568.469918,219.311879 560.102455,216.666001 553.542791,211.325581 Z M600.668837,195.627907 C603.333113,194.696405 605.640122,192.965418 607.270698,190.674419 C609.647975,185.96921 610.71493,180.717941 610.36093,175.465116 L610.36093,172.255814 L585.92,172.255814 C582.27356,171.752679 578.591124,172.89031 575.875077,175.359036 C573.159029,177.827761 571.69206,181.370633 571.873488,185.023256 C571.873488,188.651163 573.207907,194.930233 578.124186,196.255814 C585.601256,197.606198 593.27968,197.392341 600.668837,195.627907 Z" id="Shape" fill="#333333" fill-rule="nonzero"></path>
                <path d="M726.104186,162.069767 C726.293567,156.024942 725.917377,149.975708 724.980465,144 C724.635547,141.201769 722.929087,138.750307 720.415349,137.44186 C716.470631,136.192141 712.328586,135.671902 708.194884,135.906977 C703.701865,135.602016 699.210084,136.518542 695.20186,138.55814 C692.317366,140.472489 690.340013,143.469241 689.723721,146.860465 C688.691593,152.262669 688.244241,157.759063 688.389302,163.255814 L688.389302,216.767442 L661.209302,216.767442 L661.209302,113.372093 L687.827442,113.372093 L687.827442,126.139535 L687.827442,126.139535 C690.426047,121.116279 700.820465,111.767442 720.906977,111.767442 C728.211161,111.286157 735.506181,112.832122 741.976744,116.232558 C746.709393,119.175483 750.108283,123.827385 751.45814,129.209302 C753.211934,136.707483 753.990841,144.398072 753.775814,152.093023 L753.775814,216.767442 L726.666047,216.767442 L726.104186,162.069767 Z" id="Shape" fill="#333333" fill-rule="nonzero"></path>
                <path d="M822.744186,193.744186 C819.541959,193.033547 816.907587,190.782991 815.72093,187.744186 C814.606516,183.723974 814.086041,179.564242 814.175814,175.395349 L814.175814,135 L837.844186,135 L837.844186,112.674419 L814.175814,112.674419 L814.175814,82.6744186 L787.066047,82.6744186 L787.066047,112.674419 L766.55814,112.674419 L766.55814,135 L786.574419,135 L786.574419,166.744186 L786.574419,166.744186 C786.008348,176.852993 786.644841,186.992844 788.470698,196.953488 C790.867161,204.060512 796.247202,209.786667 803.219535,212.651163 C814.304614,216.621953 826.076397,218.353493 837.844186,217.744186 L837.844186,195.418605 C832.765208,195.395894 827.703187,194.834573 822.744186,193.744186 L822.744186,193.744186 Z" id="Shape" fill="#333333" fill-rule="nonzero"></path>
                <text id="Admin" font-family="Saira-Bold, Saira" font-size="190" font-weight="bold" letter-spacing="1.06741571" fill="#006EE5">
                    <tspan x="857.001461" y="216">Admin</tspan>
                </text>
            </g>
        </g>
    </g>
</svg>
